<?xml version="1.0" standalone="no"?>
<!DOCTYPE svg PUBLIC "-//W3C//DTD SVG 20010904//EN"
 "http://www.w3.org/TR/2001/REC-SVG-20010904/DTD/svg10.dtd">
<svg version="1.0" xmlns="http://www.w3.org/2000/svg"
 width="700.000000pt" height="700.000000pt" viewBox="0 0 700.000000 700.000000"
 preserveAspectRatio="xMidYMid meet">
<metadata>
Created by potrace 1.11, written by Peter Selinger 2001-2013
</metadata>
<g transform="translate(0.000000,700.000000) scale(0.100000,-0.100000)"
fill="#000000" stroke="none">
<path d="M969 6977 c-59 -39 -61 -51 -62 -350 l-2 -272 -192 -3 -193 -2 -1
-25 c0 -14 0 -50 0 -80 0 -30 0 -77 0 -104 l1 -49 118 -1 c64 0 151 0 194 0
l76 -1 -1 -257 -2 -258 -187 0 c-102 0 -189 -3 -192 -6 -5 -5 -10 -179 -7
-239 1 -13 29 -15 195 -15 l194 0 0 -257 c0 -188 -3 -257 -11 -260 -7 -2 -94
-3 -194 -2 l-183 1 -1 -31 c-2 -75 2 -220 6 -224 2 -3 89 -4 193 -4 l189 1 1
-260 1 -259 -194 0 -194 0 -3 -57 c-2 -32 -2 -91 0 -130 l4 -73 191 -2 192 -3
1 -257 2 -256 -190 0 c-104 0 -192 -2 -194 -5 -4 -4 -6 -101 -5 -215 l1 -42
178 1 c97 0 184 0 194 0 14 -1 16 -26 15 -258 l-2 -258 -187 0 c-103 -1 -190
-4 -193 -7 -6 -5 -8 -105 -6 -219 l1 -35 193 0 192 1 2 -257 c1 -231 -1 -257
-15 -260 -10 -2 -97 -3 -194 -3 l-178 1 -1 -51 c-2 -108 1 -198 7 -204 3 -3
89 -6 192 -6 l187 0 2 -257 2 -258 -195 -2 -196 -3 0 -125 0 -125 195 -3 194
-2 1 -275 c1 -303 4 -318 65 -355 32 -20 72 -20 2717 -20 2536 0 2687 1 2720
18 19 9 43 32 53 50 19 31 19 120 19 3432 0 3310 -1 3401 -19 3432 -10 18 -34
41 -53 50 -33 17 -184 18 -2721 18 l-2686 0 -34 -23z m5001 -237 l255 0 -2
-3208 c-1 -1764 -2 -3222 -2 -3239 l-1 -33 -2525 0 -2525 0 -1 23 c-1 28 -1
337 0 355 1 9 47 12 194 12 l193 0 -1 128 -1 127 -193 5 -194 5 0 245 c1 135
2 250 2 256 1 6 65 10 191 9 105 0 191 2 191 5 3 13 5 236 2 245 -2 7 -69 11
-190 10 -147 0 -187 3 -191 13 -8 21 -8 482 0 495 5 8 67 12 195 12 l188 0 0
123 c1 101 -2 125 -15 131 -8 4 -95 6 -192 6 -121 -1 -178 2 -179 9 0 6 -1
122 -2 259 l-2 247 55 1 c30 0 118 1 195 2 l140 2 0 124 c0 88 -3 125 -12 128
-6 3 -94 5 -194 6 l-182 2 0 250 c1 138 2 253 2 257 1 4 88 9 194 10 l192 3 0
125 0 125 -194 5 -194 5 -1 253 c-1 216 1 253 14 257 8 2 92 4 185 4 94 0 175
0 180 0 6 1 10 50 10 129 l0 127 -185 2 c-102 0 -189 2 -195 2 -8 1 -12 358
-6 496 1 20 7 21 187 20 116 0 188 3 192 10 8 12 10 244 2 246 -3 1 -88 3
-190 4 -102 1 -187 3 -190 4 -4 1 -5 433 -1 501 1 13 28 15 191 13 104 0 191
2 191 5 1 4 2 62 3 130 l1 122 -192 0 c-106 0 -193 3 -194 8 0 4 -1 91 -2 194
l-2 188 270 2 c149 2 1172 2 2275 1 1103 -2 2120 -3 2260 -3z"/>
<path d="M1944 6092 c-69 -10 -100 -33 -118 -85 -16 -48 -16 -2143 1 -2172 6
-11 23 -31 38 -45 l27 -25 1922 -3 1923 -2 34 23 c67 45 63 -26 63 1147 0
1014 -1 1067 -18 1096 -10 17 -32 39 -48 49 -27 16 -148 17 -1917 18 -1038 1
-1896 1 -1907 -1z m3623 -266 c4 -4 8 -412 8 -907 l0 -899 -671 0 -671 0 -198
453 c-234 534 -236 539 -271 562 -42 27 -105 24 -145 -7 -29 -22 -52 -68 -148
-289 -63 -145 -124 -286 -137 -314 -12 -27 -38 -86 -58 -130 l-35 -80 -27 60
c-14 33 -91 209 -171 390 -79 182 -154 340 -165 352 -51 55 -158 45 -196 -17
-13 -21 -128 -280 -262 -590 -32 -74 -83 -191 -114 -260 l-55 -125 -88 -3 -89
-3 0 905 c0 904 0 905 21 908 46 7 3466 1 3472 -6z m-2646 -1529 c65 -149 117
-272 115 -274 -2 -2 -115 -2 -252 -1 l-249 3 125 287 c90 207 127 282 134 271
4 -8 62 -137 127 -286z m908 -2 l119 -270 -130 -3 c-71 -1 -185 -1 -253 0
l-124 3 84 190 c46 105 87 199 92 210 75 171 78 177 85 158 5 -10 62 -139 127
-288z"/>
<path d="M4734 5699 c-262 -34 -452 -250 -452 -514 0 -126 32 -222 109 -318
197 -249 558 -266 779 -36 55 56 115 158 124 211 2 15 8 32 11 38 4 6 7 52 7
103 1 149 -49 267 -157 372 -113 110 -271 164 -421 144z m144 -270 c99 -27
175 -136 174 -246 -1 -189 -197 -312 -366 -229 -184 90 -199 342 -27 450 65
41 134 49 219 25z"/>
<path d="M1900 3102 c-36 -16 -60 -41 -73 -73 -11 -28 -13 -225 -12 -1094 1
-1184 -4 -1104 71 -1140 35 -16 149 -17 1936 -17 1764 0 1902 1 1937 17 21 9
46 31 56 48 18 30 19 77 19 1077 1 575 -2 1062 -5 1084 -4 24 -19 50 -38 70
l-31 31 -1923 2 c-1057 1 -1929 -1 -1937 -5z m3675 -1150 c-1 -493 -4 -902 -7
-907 -5 -8 -68 -11 -168 -6 -23 1 -1 -29 -450 596 -194 270 -367 505 -385 524
-42 43 -112 53 -160 23 -16 -10 -79 -88 -140 -173 -60 -85 -112 -156 -115
-159 -6 -5 -94 -127 -120 -167 -8 -12 -73 -102 -144 -200 -71 -98 -173 -239
-227 -313 l-98 -135 -738 2 c-406 1 -740 2 -743 2 -3 1 -6 408 -6 906 l0 905
1750 0 1751 0 0 -898z m-935 -332 c73 -102 150 -207 170 -235 145 -196 248
-345 237 -346 -62 -4 -1141 -3 -1148 2 -8 5 80 130 458 652 l115 158 17 -23
c10 -13 78 -106 151 -208z"/>
<path d="M2790 2718 c-128 -19 -218 -65 -306 -154 -231 -232 -187 -616 90
-796 230 -149 547 -85 703 143 127 186 122 427 -14 607 -80 107 -215 184 -344
198 -35 3 -66 7 -69 8 -3 2 -30 -1 -60 -6z m176 -281 c45 -23 103 -86 124
-134 26 -59 22 -164 -9 -218 -33 -58 -59 -82 -115 -110 -211 -103 -437 101
-355 321 24 63 66 108 134 141 42 20 61 23 120 20 39 -2 84 -11 101 -20z"/>
</g>
</svg>
